<svg width="163" height="32" viewBox="0 0 163 32" fill="none" xmlns="http://www.w3.org/2000/svg">
<path d="M15.9848 22.9296C16.1424 22.836 16.3385 22.8362 16.4959 22.93L22.1123 26.2767L22.1124 26.2767C22.7774 26.6733 23.5512 26.0801 23.3862 25.3811L21.8976 19.088C21.8544 18.9055 21.9169 18.7143 22.0595 18.5926L27.0262 14.3526L27.0264 14.3524C27.5862 13.8749 27.2972 12.9573 26.5404 12.898L26.5378 12.8978L20.0012 12.3511C19.8171 12.3357 19.6565 12.2201 19.5835 12.0504L17.0257 6.10375L17.0251 6.10217C16.7376 5.42753 15.7423 5.42753 15.4549 6.10217L15.4541 6.10413L12.8963 12.0375C12.8232 12.2069 12.6627 12.3224 12.4788 12.3378L5.9422 12.8845L5.93959 12.8847L5.93959 12.8847C5.18279 12.944 4.89374 13.8616 5.45358 14.3391L5.45376 14.3392L10.4205 18.5792C10.5631 18.701 10.6256 18.8922 10.5824 19.0746L9.09382 25.3677L15.9848 22.9296ZM15.9848 22.9296L10.3685 26.2629L10.3676 26.2634M15.9848 22.9296L10.3676 26.2634M10.3676 26.2634C9.70266 26.6599 8.92898 26.0669 9.09376 25.368L10.3676 26.2634Z" fill="#FFBA79" stroke="#FFBA79" stroke-linejoin="round"/>
<path d="M48.4648 22.9296C48.6224 22.836 48.8185 22.8362 48.9759 22.93L54.5923 26.2767L54.5924 26.2767C55.2574 26.6733 56.0312 26.0801 55.8661 25.3811L54.3775 19.088C54.3344 18.9055 54.3969 18.7143 54.5395 18.5926L59.5062 14.3526L59.5064 14.3524C60.0662 13.8749 59.7772 12.9573 59.0204 12.898L59.0178 12.8978L52.4812 12.3511C52.2971 12.3357 52.1365 12.2201 52.0635 12.0504L49.5057 6.10375L49.505 6.10217C49.2176 5.42753 48.2223 5.42753 47.9349 6.10217L47.9341 6.10413L45.3763 12.0375C45.3032 12.2069 45.1427 12.3224 44.9588 12.3378L38.4222 12.8845L38.4196 12.8847L38.4196 12.8847C37.6628 12.944 37.3737 13.8616 37.9336 14.3391L37.9337 14.3392L42.9005 18.5792C43.043 18.701 43.1056 18.8922 43.0624 19.0746L41.5738 25.3677L48.4648 22.9296ZM48.4648 22.9296L42.8484 26.2629L42.8476 26.2634M48.4648 22.9296L42.8476 26.2634M42.8476 26.2634C42.1826 26.6599 41.409 26.0669 41.5737 25.368L42.8476 26.2634Z" fill="#FFBA79" stroke="#FFBA79" stroke-linejoin="round"/>
<path d="M80.9448 22.9296C81.1023 22.836 81.2985 22.8362 81.4559 22.93L87.0722 26.2767L87.0724 26.2767C87.7374 26.6733 88.5111 26.0801 88.3461 25.3811L86.8575 19.088C86.8144 18.9055 86.8769 18.7143 87.0194 18.5926L91.9862 14.3526L91.9864 14.3524C92.5462 13.8749 92.2572 12.9573 91.5004 12.898L91.4977 12.8978L84.9612 12.3511C84.7771 12.3357 84.6165 12.2201 84.5435 12.0504L81.9857 6.10375L81.985 6.10217C81.6976 5.42753 80.7023 5.42753 80.4149 6.10217L80.414 6.10413L77.8562 12.0375C77.7832 12.2069 77.6227 12.3224 77.4388 12.3378L70.9022 12.8845L70.8996 12.8847L70.8996 12.8847C70.1427 12.944 69.8537 13.8616 70.4135 14.3391L70.4137 14.3392L75.3805 18.5792C75.523 18.701 75.5855 18.8922 75.5424 19.0746L74.0538 25.3677L80.9448 22.9296ZM80.9448 22.9296L75.3284 26.2629L75.3275 26.2634M80.9448 22.9296L75.3275 26.2634M75.3275 26.2634C74.6626 26.6599 73.8889 26.0669 74.0537 25.368L75.3275 26.2634Z" fill="#FFBA79" stroke="#FFBA79" stroke-linejoin="round"/>
<path d="M113.425 22.9296C113.582 22.836 113.778 22.8362 113.936 22.93L119.552 26.2767L119.552 26.2767C120.217 26.6733 120.991 26.0801 120.826 25.3811L119.337 19.088C119.294 18.9055 119.357 18.7143 119.499 18.5926L124.466 14.3526L124.466 14.3524C125.026 13.8749 124.737 12.9573 123.98 12.898L123.978 12.8978L117.441 12.3511C117.257 12.3357 117.096 12.2201 117.023 12.0504L114.466 6.10375L114.465 6.10217C114.178 5.42753 113.182 5.42753 112.895 6.10217L112.894 6.10413L110.336 12.0375C110.263 12.2069 110.103 12.3224 109.919 12.3378L103.382 12.8845L103.38 12.8847L103.38 12.8847C102.623 12.944 102.334 13.8616 102.894 14.3391L102.894 14.3392L107.86 18.5792C108.003 18.701 108.066 18.8922 108.022 19.0746L106.534 25.3677L113.425 22.9296ZM113.425 22.9296L107.808 26.2629L107.808 26.2634M113.425 22.9296L107.808 26.2634M107.808 26.2634C107.143 26.6599 106.369 26.0669 106.534 25.368L107.808 26.2634Z" fill="#FFBA79" stroke="#FFBA79" stroke-linejoin="round"/>
<path d="M145.905 22.9296C146.062 22.836 146.258 22.8362 146.416 22.93L152.032 26.2767L152.032 26.2767C152.697 26.6733 153.471 26.0801 153.306 25.3811L151.817 19.088C151.774 18.9055 151.837 18.7143 151.979 18.5926L156.946 14.3526L156.946 14.3524C157.506 13.8749 157.217 12.9573 156.46 12.898L156.458 12.8978L149.921 12.3511C149.737 12.3357 149.576 12.2201 149.503 12.0504L146.946 6.10375L146.945 6.10217C146.658 5.42753 145.662 5.42753 145.375 6.10217L145.374 6.10413L142.816 12.0375C142.743 12.2069 142.583 12.3224 142.399 12.3378L135.862 12.8845L135.86 12.8847L135.86 12.8847C135.103 12.944 134.814 13.8616 135.374 14.3391L135.374 14.3392L140.34 18.5792C140.483 18.701 140.546 18.8922 140.502 19.0746L139.014 25.3677L145.905 22.9296ZM145.905 22.9296L140.288 26.2629L140.287 26.2634M145.905 22.9296L140.287 26.2634M140.287 26.2634C139.623 26.6599 138.849 26.0669 139.014 25.368L140.287 26.2634Z" fill="#FFBA79" stroke="#FFBA79" stroke-linejoin="round"/>
</svg>
